HIERARCHY
ROOT Hips
{
	OFFSET -3.958830 18.904000 13.208200
	CHANNELS 6 Xposition Yposition Zposition Zrotation Yrotation Xrotation 
	JOINT LHipJoint
	{
		OFFSET 0.000000 0.000000 0.000000
		CHANNELS 3 Zrotation Yrotation Xrotation
		JOINT LeftUpLeg
		{
			OFFSET 1.800000 -1.400000 0.085000
			CHANNELS 3 Zrotation Yrotation Xrotation
			JOINT LeftLeg
			{
				OFFSET 2.215000 -6.000000 0.000000
				CHANNELS 3 Zrotation Yrotation Xrotation
				JOINT LeftFoot
				{
					OFFSET 2.500000 -6.900000 0.000000
					CHANNELS 3 Zrotation Yrotation Xrotation
					JOINT LeftToeBase
					{
						OFFSET 0.200000 -0.500000 1.950000
						CHANNELS 3 Zrotation Yrotation Xrotation
						End Site
						{
							OFFSET 0.000000 0.000000 0.000000
						}
					}
				}
			}
		}
	}
	JOINT RHipJoint
	{
		OFFSET 0.000000 0.000000 0.000000
		CHANNELS 3 Zrotation Yrotation Xrotation
		JOINT RightUpLeg
		{
			OFFSET -1.800000 -1.400000 0.085000
			CHANNELS 3 Zrotation Yrotation Xrotation
			JOINT RightLeg
			{
				OFFSET -2.215000 -6.000000 0.000000
				CHANNELS 3 Zrotation Yrotation Xrotation
				JOINT RightFoot
				{
					OFFSET -2.500000 -6.900000 0.000000
					CHANNELS 3 Zrotation Yrotation Xrotation
					JOINT RightToeBase
					{
						OFFSET -0.200000 -0.500000 1.950000
						CHANNELS 3 Zrotation Yrotation Xrotation
						End Site
						{
							OFFSET 0.000000 0.000000 0.000000
						}
					}
				}
			}
		}
	}
	JOINT LowerBack
	{
		OFFSET 0.000000 0.000000 0.000000
		CHANNELS 3 Zrotation Yrotation Xrotation
		JOINT Spine
		{
			OFFSET -0.087000 1.940000 -0.288900
			CHANNELS 3 Zrotation Yrotation Xrotation
			JOINT Spine1
			{
				OFFSET 0.000000 1.950000 0.060000
				CHANNELS 3 Zrotation Yrotation Xrotation
				JOINT Neck
				{
					OFFSET 0.000000 0.000000 0.000000
					CHANNELS 3 Zrotation Yrotation Xrotation
					JOINT Neck1
					{
						OFFSET 0.000000 1.600000 0.340000
						CHANNELS 3 Zrotation Yrotation Xrotation
						JOINT Head
						{
							OFFSET 0.000000 1.667000 -0.240000
							CHANNELS 3 Zrotation Yrotation Xrotation
							End Site
							{
								OFFSET 0.000000 0.000000 0.000000
							}
						}
					}
				}
				JOINT LeftShoulder
				{
					OFFSET 0.000000 0.000000 0.000000
					CHANNELS 3 Zrotation Yrotation Xrotation
					JOINT LeftArm
					{
						OFFSET 2.700000 1.550000 -0.730000
						CHANNELS 3 Zrotation Yrotation Xrotation
						JOINT LeftForeArm
						{
							OFFSET 5.450000 0.000000 0.000000
							CHANNELS 3 Zrotation Yrotation Xrotation
							JOINT LeftHand
							{
								OFFSET 3.450000 0.000000 0.000000
								CHANNELS 3 Zrotation Yrotation Xrotation
								JOINT LeftHandIndex1
								{
									OFFSET 0.750000 0.000000 0.000000
									CHANNELS 3 Zrotation Yrotation Xrotation
									End Site
									{
										OFFSET 0.000000 0.000000 0.000000
									}
								}
							}
						}
					}
				}
				JOINT RightShoulder
				{
					OFFSET 0.000000 0.000000 0.000000
					CHANNELS 3 Zrotation Yrotation Xrotation
					JOINT RightArm
					{
						OFFSET -2.700000 1.550000 -0.730000
						CHANNELS 3 Zrotation Yrotation Xrotation
						JOINT RightForeArm
						{
							OFFSET -5.450000 0.000000 0.000000
							CHANNELS 3 Zrotation Yrotation Xrotation
							JOINT RightHand
							{
								OFFSET -3.450000 0.000000 0.000000
								CHANNELS 3 Zrotation Yrotation Xrotation
								JOINT RightHandIndex1
								{
									OFFSET -0.750000 0.000000 0.000000
									CHANNELS 3 Zrotation Yrotation Xrotation
									End Site
									{
										OFFSET 0.000000 0.000000 0.000000
									}
								}
							}
						}
					}
				}
			}
		}
	}
}
MOTION
Frames: 7
Frame Time: 0.016667
0.498430 16.869020 -0.883590 -5.136857 -4.006516 0.433393 -14.890544 13.144864 3.159384 2.028802 -0.159192 -2.556215 -5.906926 4.209921 3.701618 -0.723370 3.953106 3.367120 0.918620 0.419490 0.651660 18.538358 -10.884152 3.221524 1.101357 -0.671424 -2.959891 6.177263 -4.737605 4.944211 -0.726182 -3.617233 3.472581 0.251300 -0.033150 0.342520 -4.300650 -1.366855 -7.942953 14.670894 -0.439931 7.851308 -7.502482 0.984290 10.367271 4.538233 -3.407227 -15.381144 -9.729796 5.679675 47.244668 -1.851650 3.055450 -21.546480 -33.342572 -25.153596 8.928247 -42.686087 -8.507156 -3.302710 -12.549884 -26.085734 -0.030949 -3.177283 2.910495 1.131330 -0.077400 0.305990 0.404120 24.269140 29.726721 11.878118 50.214787 12.599915 -5.212140 15.752482 28.851365 1.503761 1.733451 -1.339821 -0.219410 0.226360 -0.296730 -0.406280 
0.499390 16.872720 -0.885750 -4.912485 -4.159486 0.312190 -14.898605 13.122615 3.172125 1.851176 -0.122353 -2.331353 -6.064668 4.238104 3.498722 -0.769321 4.018280 3.366605 0.886600 0.377000 0.646880 18.535755 -10.878201 3.204367 0.717157 -0.679372 -2.870661 6.437836 -4.784288 4.863186 -0.709910 -3.634198 3.480945 0.257700 -0.001410 0.301300 -4.285906 -1.360998 -7.933401 14.392339 -0.397232 7.819581 -7.439813 1.046823 10.857423 4.475278 -3.543338 -15.484145 -10.014425 5.818958 47.160337 -1.882290 3.026710 -21.637560 -33.074769 -25.560407 9.000928 -42.626170 -8.946593 -3.233258 -12.249474 -26.317004 -0.104249 -3.199569 2.828155 1.155210 -0.067170 0.277990 0.391210 24.198537 30.215441 12.005875 50.032309 13.103032 -5.227089 15.282062 29.204136 1.436049 1.704656 -1.295849 -0.283180 0.289600 -0.270720 -0.429080 
0.501900 16.877290 -0.899080 -4.601609 -4.218840 -0.001476 -14.915942 13.091076 3.180705 1.578223 -0.075324 -2.049628 -6.177084 4.265858 3.358135 -0.785495 4.055912 3.368301 0.890800 0.377940 0.675330 18.526217 -10.877654 3.181557 0.220243 -0.701105 -2.676110 6.788114 -4.856391 4.875694 -0.704858 -3.674308 3.479776 0.272320 0.012440 0.273650 -4.250059 -1.336920 -7.917365 13.857815 -0.367674 7.824386 -7.300270 1.070615 12.241439 4.476592 -3.489327 -15.860838 -9.921069 5.828313 47.133523 -2.100280 3.059200 -21.441840 -32.226916 -26.855952 9.391534 -42.514764 -10.101349 -3.240297 -11.319465 -27.053007 -0.289404 -3.211523 2.780496 1.150940 -0.055360 0.259080 0.380080 23.490947 31.497307 12.284912 49.615626 14.331044 -5.315070 14.097234 30.199585 1.191557 1.673313 -1.283015 -0.307300 0.328480 -0.270550 -0.443790 
0.506130 16.886450 -0.915980 -4.476662 -4.483866 -0.434555 -14.917999 13.070938 3.174683 1.438058 -0.021527 -1.688138 -6.117424 4.283067 3.438594 -0.811068 4.095181 3.354045 0.910840 0.403730 0.690720 18.531158 -10.889202 3.160662 -0.051019 -0.737027 -2.432809 6.699078 -4.882389 4.990854 -0.717679 -3.708427 3.459006 0.301410 0.018070 0.272430 -4.253334 -1.306870 -7.882390 13.724578 -0.418866 7.974452 -7.295288 1.050621 13.826962 4.489081 -3.602449 -16.240984 -10.141834 6.085142 47.021536 -2.106010 3.115800 -21.884690 -31.178775 -28.201743 9.760578 -42.360914 -11.477911 -3.277326 -10.191888 -27.924159 -0.557345 -3.212589 2.763214 1.158410 -0.051420 0.262880 0.381750 22.554050 32.902499 12.524526 48.923282 15.960665 -5.358243 13.012952 31.286488 0.977921 1.633711 -1.284040 -0.317880 0.353190 -0.269510 -0.448790 
0.513850 16.898140 -0.931760 -4.393295 -4.741276 -0.757306 -14.909491 13.040997 3.168355 1.316834 0.020486 -1.344806 -6.038525 4.269139 3.427795 -0.811183 4.095204 3.340567 0.956240 0.465190 0.706200 18.547610 -10.897797 3.148760 -0.278937 -0.777981 -2.211025 6.595486 -4.864039 4.875261 -0.741565 -3.741650 3.431710 0.338460 0.000770 0.284700 -4.288874 -1.263041 -7.851153 13.800885 -0.472587 8.016192 -7.389880 1.026308 15.155652 4.453343 -3.726163 -16.561961 -10.395292 6.347397 46.885576 -1.813170 3.140790 -22.293040 -30.440129 -29.298917 10.086403 -41.998390 -12.703999 -3.416561 -9.280141 -29.132355 -0.757241 -3.183859 2.801520 1.153550 -0.059000 0.281120 0.396030 21.971661 34.034293 12.706852 48.126583 17.440264 -5.371027 11.907072 32.342149 0.753671 1.604636 -1.317881 -0.296800 0.343100 -0.290640 -0.440890 
0.522440 16.909720 -0.946130 -4.417384 -4.921634 -0.940580 -14.893307 12.990430 3.143333 1.272288 0.027830 -1.168818 -6.048496 4.254368 3.507259 -0.808798 4.081743 3.321449 1.027460 0.551050 0.724230 18.577389 -10.905746 3.136431 -0.442934 -0.814256 -2.032061 6.650560 -4.867051 4.723336 -0.781216 -3.786722 3.395798 0.383230 -0.027660 0.319600 -4.356809 -1.184630 -7.788023 14.123307 -0.455792 7.919463 -7.470695 1.009902 16.100849 4.311649 -3.952486 -16.481055 -10.827379 6.510353 46.430321 -1.236330 2.939990 -23.214700 -29.393850 -29.805672 10.070529 -42.379446 -14.532091 -3.057287 -8.095326 -29.694343 -1.016154 -3.160632 2.859548 1.151710 -0.073660 0.313780 0.424680 21.251839 34.519429 12.620755 47.820204 19.104860 -5.100141 10.376230 32.999723 0.431858 1.580793 -1.364449 -0.254010 0.313400 -0.322660 -0.425880 
0.532420 16.922350 -0.964170 -4.595098 -4.785599 -1.098110 -14.860602 12.938219 3.110109 1.308443 0.026547 -1.083629 -5.833551 4.203985 3.442715 -0.833387 4.073166 3.324319 1.050800 0.588270 0.737260 18.623152 -10.930664 3.119199 -0.393131 -0.827953 -2.034909 6.647611 -4.890208 4.922774 -0.792132 -3.800521 3.384980 0.413300 -0.018780 0.316140 -4.475025 -1.071274 -7.712728 14.777873 -0.647080 7.788724 -7.912346 0.846654 17.051675 4.243412 -4.050953 -16.378174 -10.915771 6.701965 46.040317 -0.896930 2.911110 -23.878780 -28.410749 -30.438053 10.177580 -42.715343 -16.243454 -2.803663 -6.487307 -30.328259 -1.414606 -3.170699 2.838920 1.147610 -0.069980 0.316830 0.427900 20.390765 35.015759 12.360368 47.862745 21.407616 -4.329303 8.219450 32.739519 -0.021645 1.562262 -1.350307 -0.255010 0.341500 -0.323830 -0.422520 
